<svg width="64" height="62" viewBox="0 0 64 62" fill="none" xmlns="http://www.w3.org/2000/svg">
<path d="M58.7997 14.1319L57.8273 12.7625C55.7804 10.2524 55.5669 9.98939 53.7715 8.31314C52.9597 7.6336 51.8766 6.72623 51.0271 6.09215C49.6374 5.09385 47.8559 4.39105 45.6894 4.04692C34.6283 2.29561 17.7053 10.5873 7.89046 22.5665C2.05701 29.6876 0.0473068 36.5081 1.6994 41.2379L1.85351 41.6676C3.21502 44.9609 3.80568 46.2687 6.16593 49.5858L7.20428 50.8968C3.25652 46.1778 4.77187 37.75 12.0469 28.8706C22.1811 16.5006 39.6546 7.93861 51.076 9.74754C54.7095 10.3232 57.2925 11.8795 58.7997 14.1319Z" fill="#B67A11"/>
<path d="M40.7011 1.17054C39.6413 0.920508 38.2231 0.596992 37.1502 0.405368C34.4134 0.0659953 33.9926 0.0139277 31.577 0.000976562C23.4511 0.103529 12.5382 5.92176 5.93745 13.9771C3.85694 16.5169 2.4287 19.0056 1.64023 21.2972L1.41585 21.9785C0.742963 24.3806 0.603503 24.8809 0.239387 27.3033C0.161788 28.1475 0.0475612 29.2743 0.0090332 30.1211C0.155277 26.3915 2.1145 21.8601 5.94722 17.1835C14.5959 6.62615 29.5084 -0.679885 39.2554 0.863152C39.7609 0.944824 40.2433 1.04711 40.7011 1.17054Z" fill="#FFB83D"/>
<path d="M63.8721 33.9941C64.0287 31.2188 64.0531 30.793 63.88 28.414C63.7696 27.5634 63.6377 26.4264 63.4877 25.5814C62.7863 21.7457 59.9341 19.0292 55.0093 18.2492C44.3829 16.5666 28.1244 24.5329 18.6954 36.0412C10.5985 45.9239 10.1698 55.2054 16.938 58.697C18.0613 59.2269 19.5731 59.9056 20.7295 60.3629C22.0196 60.781 23.7583 61.2869 25.0758 61.6152C16.2882 59.7539 15.6796 50.4537 23.8633 40.4652C32.2648 30.2108 46.7508 23.113 56.2181 24.6124C61.7444 25.4884 64.3407 29.0999 63.8721 33.9941Z" fill="#6A4300"/>
<path d="M43.5071 57.0997C40.9263 56.6908 40.6903 54.0935 42.9808 51.2979C45.271 48.5025 49.2199 46.5678 51.7996 46.9769C54.3815 47.3858 54.617 49.9832 52.3265 52.778C50.0488 55.5593 46.1292 57.4883 43.5476 57.1055C40.3864 59.6331 36.9408 61.2237 33.4676 61.8681C35.3742 62.1507 37.5489 61.9704 39.8302 61.4061L40.7204 61.1746C42.688 60.5796 42.7257 60.5685 43.7608 60.1715C45.5198 59.4502 45.5198 59.4502 46.3856 59.0263C47.9544 58.2172 47.9544 58.2172 48.7323 57.7547C50.1334 56.8788 50.2482 56.8071 50.8985 56.3404C52.272 55.3188 52.272 55.3188 52.9584 54.7416C54.3131 53.5471 54.3131 53.5471 54.9771 52.8803C56.287 51.4987 56.3386 51.4448 57.0052 50.6323C58.297 48.9719 58.348 48.9069 59.0065 47.9031L59.2208 47.57C63.4266 40.9562 62.226 35.2445 55.9677 34.2534C48.9314 33.1388 38.1659 38.4138 31.9216 46.0344C25.6779 53.6555 26.3207 60.7369 33.3569 61.8512C36.8502 61.2097 40.3202 59.6231 43.5071 57.0997Z" fill="#303030"/>
<path d="M14.5553 54.5704C25.9788 56.2622 43.3234 47.7255 53.405 35.4201C60.3148 26.9857 62.028 18.9592 58.7997 14.1316L57.8273 12.7622C56.3122 10.8053 56.0233 10.5216 53.7716 8.31281C53.15 7.7353 52.2969 7.07638 51.5532 6.50098C56.6663 10.7746 55.5856 19.5848 47.9449 28.9102C38.1819 40.8276 21.3837 49.0944 10.3202 47.4565C10.3305 47.4813 10.1569 47.4554 10.1463 47.4293C5.65967 46.7191 2.82678 44.4656 1.69916 41.237L1.85327 41.6663C3.39873 45.5709 4.20862 46.7458 6.16568 49.585L7.20403 50.8959C8.75628 52.7506 11.1523 54.0317 14.3759 54.5429C14.3301 54.4884 14.5078 54.5138 14.5553 54.5704Z" fill="#B67A11"/>
<path d="M51.5532 6.50119C51.3839 6.35979 51.2084 6.2234 51.0269 6.09204C51.1915 6.22155 51.3698 6.35899 51.5532 6.50119Z" fill="url(#paint0_radial_3050_550)"/>
<path d="M8.95597 23.6087C8.97876 23.525 9.06558 23.5429 9.04496 23.6217C14.6869 24.4574 23.2523 20.2417 28.2311 14.1644C33.2356 8.05574 32.7209 2.37943 27.0807 1.48607C21.4404 0.592703 12.8107 4.82059 7.8061 10.9301C2.80073 17.0391 3.31596 22.7156 8.95597 23.6087ZM11.724 9.56732C13.9806 6.8119 17.8736 4.90517 20.4172 5.30798C22.9609 5.71131 23.1931 8.27062 20.936 11.026C18.6902 13.7675 14.8274 15.6686 12.2827 15.2923C12.2371 15.3779 12.1969 15.3702 12.2428 15.2856C9.69885 14.8831 9.4666 12.3227 11.724 9.56732Z" fill="#FECC75"/>
<path d="M7.93498 39.0932C7.92467 39.0208 8.07743 39.0409 8.08855 39.117C17.838 40.5607 32.6404 33.2755 41.244 22.774C49.4437 12.7654 49.0695 3.42789 40.7011 1.17095C39.6451 0.904 38.2201 0.614054 37.1503 0.405778C35.1623 0.0740701 33.5805 0.0412951 31.577 0.00138444C32.4583 -0.00971654 33.3065 0.0457876 34.1134 0.173449C42.3581 1.47967 43.1105 9.77633 35.7942 18.7068C28.5165 27.5894 15.996 33.7526 7.74859 32.5312C7.74696 32.5939 7.61672 32.573 7.6189 32.5117C1.71896 31.5766 -0.344184 27.0627 1.64001 21.2978L1.41562 21.9792C0.734057 24.294 0.658358 24.7542 0.239163 27.304C0.139316 28.1461 0.0695864 29.2757 0.00880992 30.1218C-0.174605 34.8106 2.50715 38.2337 7.93498 39.0932Z" fill="#FFB83D"/>
<path d="M63.8803 28.4141C63.8151 27.5591 63.6133 26.4305 63.4879 25.5815C64.3008 30.0214 62.235 35.9612 57.1767 42.1355C47.7967 53.5851 31.6587 61.5281 21.0299 59.9531C21.1018 59.9922 20.9333 59.9653 20.8627 59.928C19.3612 59.6901 18.0518 59.2717 16.9383 58.6971C18.0551 59.2392 19.5788 59.8936 20.7298 60.363C22.0188 60.7851 23.7596 61.2823 25.0761 61.6153C25.31 61.6645 25.5493 61.7092 25.7946 61.7472C25.2772 61.6349 25.4429 61.6619 25.943 61.7705C35.4135 63.1734 49.7921 56.0958 58.1491 45.895C61.647 41.6272 63.5389 37.4842 63.8724 33.9942C64.0507 31.6422 64.0317 31.2742 63.8803 28.4141Z" fill="#6A4300"/>
<defs>
<radialGradient id="paint0_radial_3050_550" cx="0" cy="0" r="1" gradientUnits="userSpaceOnUse" gradientTransform="translate(26.6555 28.4129) scale(45.8165 44.6318)">
<stop stop-color="#B8E3EC"/>
<stop offset="0.4049" stop-color="#4FC3CF"/>
<stop offset="1" stop-color="#207BA2"/>
</radialGradient>
</defs>
</svg>
