<svg width="105" height="70" viewBox="0 0 105 70" fill="none" xmlns="http://www.w3.org/2000/svg">
<g clip-path="url(#clip0_2737_565)">
<path d="M21.687 23.9845L11.8184 19.0913V47.5976H21.687V23.9845Z" fill="#FFB83D"/>
<path d="M42.0496 15.8629L32.181 10.9697V47.6482H42.0496V15.8629Z" fill="#FFB83D"/>
<path d="M0.459842 50.0329H42.5969C42.8406 50.0329 43.0567 49.7027 43.0567 49.2991V47.5152C43.0567 47.107 42.8636 46.7769 42.5969 46.7769H0.459842C0.397294 46.7816 0.336997 46.8022 0.28468 46.8367C0.232363 46.8712 0.189765 46.9185 0.160933 46.9741C0.0672485 47.1389 0.0196076 47.3258 0.0229748 47.5152V49.2991C-1.82819e-05 49.7027 0.193123 50.0329 0.459842 50.0329Z" fill="white"/>
<path d="M21.3467 13.5514L31.5326 9.07553C31.7394 8.98578 31.9625 8.93945 32.188 8.93945C32.4134 8.93945 32.6365 8.98578 32.8433 9.07553L43.0292 13.5514L40.7299 16.1012L32.1903 12.3499L23.6368 16.1012V48.3496C23.6368 49.2668 20.3718 49.2668 20.3718 48.3496V15.0419C20.3712 14.7257 20.4631 14.4163 20.6363 14.1516C20.8094 13.8868 21.0564 13.6782 21.3467 13.5514Z" fill="white"/>
<path d="M40.8724 23.6909C41.0799 23.7811 41.3037 23.8279 41.53 23.8285C41.9048 23.8287 42.2682 23.7003 42.5592 23.4648C42.8503 23.2294 43.0512 22.9012 43.1284 22.5355C43.2055 22.1698 43.1541 21.7887 42.9828 21.4563C42.8115 21.1239 42.5307 20.8604 42.1876 20.71L32.1902 16.3213V19.88L40.8724 23.6909Z" fill="white"/>
<path d="M40.8724 31.4138C41.0799 31.504 41.3037 31.5508 41.53 31.5513C41.9048 31.5515 42.2682 31.4231 42.5592 31.1877C42.8503 30.9522 43.0512 30.6241 43.1284 30.2584C43.2055 29.8926 43.1541 29.5116 42.9828 29.1792C42.8115 28.8468 42.5307 28.5833 42.1876 28.4329L32.1902 24.0396V27.6028L40.8724 31.4138Z" fill="white"/>
<path d="M40.8724 39.1318C41.0789 39.2256 41.3031 39.274 41.53 39.274C41.904 39.2716 42.2658 39.1416 42.5554 38.9056C42.845 38.6697 43.0448 38.3419 43.1217 37.9769C43.1985 37.612 43.1478 37.2317 42.9778 36.8995C42.8079 36.5673 42.529 36.3032 42.1876 36.151L32.1902 31.7622V35.3117L40.8724 39.1318Z" fill="white"/>
<path d="M40.8724 46.8545C41.0792 46.9469 41.3035 46.9938 41.53 46.9921C41.9048 46.9923 42.2682 46.8638 42.5592 46.6284C42.8503 46.393 43.0512 46.0648 43.1284 45.6991C43.2055 45.3334 43.1541 44.9523 42.9828 44.6199C42.8115 44.2875 42.5307 44.024 42.1876 43.8736L32.1902 39.4849V43.0436L40.8724 46.8545Z" fill="white"/>
<path d="M20.3718 25.0804L11.8184 21.3245L3.26501 25.0804V48.6889H3.68282e-08V24.0165C-6.72518e-05 23.7005 0.092074 23.3913 0.265185 23.1267C0.438297 22.862 0.684896 22.6533 0.974905 22.5261L11.1608 18.0548C11.3673 17.9639 11.5905 17.917 11.8161 17.917C12.0418 17.917 12.265 17.9639 12.4714 18.0548L22.6573 22.5261L20.3718 25.0804Z" fill="white"/>
<path d="M20.5006 32.6015C20.7081 32.6917 20.9319 32.7385 21.1582 32.739C21.533 32.7392 21.8964 32.6108 22.1874 32.3754C22.4785 32.1399 22.6794 31.8118 22.7565 31.4461C22.8337 31.0803 22.7823 30.6993 22.611 30.3669C22.4397 30.0345 22.1589 29.7709 21.8158 29.6206L11.8184 25.2227V28.7814L20.5006 32.6015Z" fill="white"/>
<path d="M20.5006 39.7187C20.7081 39.809 20.9319 39.8558 21.1582 39.8563C21.533 39.8565 21.8964 39.7281 22.1874 39.4927C22.4785 39.2572 22.6794 38.9291 22.7565 38.5633C22.8337 38.1976 22.7823 37.8166 22.611 37.4842C22.4397 37.1517 22.1589 36.8882 21.8158 36.7379L11.8184 32.3491V35.9078L20.5006 39.7187Z" fill="white"/>
<path d="M20.5006 46.8364C20.7073 46.9289 20.9316 46.9758 21.1582 46.974C21.533 46.9742 21.8964 46.8458 22.1874 46.6103C22.4785 46.3749 22.6794 46.0468 22.7565 45.681C22.8337 45.3153 22.7823 44.9342 22.611 44.6018C22.4397 44.2694 22.1589 44.0059 21.8158 43.8556L11.8184 39.4668V43.0255L20.5006 46.8364Z" fill="white"/>
<path d="M103.046 23.9845L93.1816 19.0913V47.5976H103.046V23.9845Z" fill="#FFB83D"/>
<path d="M82.6738 15.8719L72.8052 10.9741V47.6526H82.6738V15.8719Z" fill="#FFB83D"/>
<path d="M104.347 50.0326H41.2725C41.0886 50.0208 40.9169 49.9371 40.7946 49.7997C40.6723 49.6623 40.6094 49.4823 40.6195 49.2988V47.5149C40.6081 47.3307 40.6705 47.1495 40.7929 47.0111C40.9153 46.8727 41.0878 46.7884 41.2725 46.7766H104.347C104.433 46.7743 104.519 46.7908 104.599 46.8249C104.678 46.8589 104.749 46.9097 104.807 46.9738C104.944 47.1207 105.019 47.3143 105.018 47.5149V49.2988C105.023 49.3911 105.01 49.4835 104.979 49.5706C104.947 49.6576 104.899 49.7376 104.837 49.8059C104.774 49.8742 104.699 49.9294 104.615 49.9683C104.531 50.0072 104.44 50.0291 104.347 50.0326Z" fill="white"/>
<path d="M63.2814 4.60858L53.0955 0.137277C52.8891 0.0464317 52.6659 -0.000488281 52.4402 -0.000488281C52.2146 -0.000488281 51.9914 0.0464317 51.7849 0.137277L41.5944 4.60858C41.3044 4.73586 41.0578 4.94456 40.8847 5.20921C40.7116 5.47386 40.6194 5.78304 40.6195 6.09902V48.4044C40.6195 49.3216 43.8845 49.3216 43.8845 48.4044V7.16296L52.4241 3.40706L60.9775 7.16296V48.4044C60.9775 49.3216 64.2425 49.3216 64.2425 48.4044V6.09902C64.2438 5.78456 64.1537 5.47647 63.9831 5.21197C63.8126 4.94748 63.5689 4.73791 63.2814 4.60858Z" fill="white"/>
<path d="M61.1201 14.7254C61.3266 14.8191 61.5508 14.8676 61.7777 14.8675C62.1517 14.8651 62.5135 14.7352 62.8031 14.4992C63.0927 14.2632 63.2925 13.9355 63.3694 13.5705C63.4462 13.2055 63.3955 12.8253 63.2255 12.4931C63.0556 12.1609 62.7767 11.8967 62.4353 11.7445L52.4241 7.3374V10.9144L61.1201 14.7254Z" fill="white"/>
<path d="M61.1201 22.7648C61.3276 22.855 61.5514 22.9019 61.7777 22.9024C62.1525 22.9026 62.5159 22.7742 62.8069 22.5387C63.098 22.3033 63.2989 21.9752 63.3761 21.6094C63.4532 21.2437 63.4018 20.8626 63.2305 20.5302C63.0592 20.1978 62.7784 19.9343 62.4353 19.784L52.4241 15.3906V18.9493L61.1201 22.7648Z" fill="white"/>
<path d="M61.1201 30.799C61.3276 30.8892 61.5514 30.936 61.7777 30.9366C62.1525 30.9368 62.5159 30.8084 62.8069 30.5729C63.098 30.3375 63.2989 30.0093 63.3761 29.6436C63.4532 29.2779 63.4018 28.8968 63.2305 28.5644C63.0592 28.232 62.7784 27.9685 62.4353 27.8181L52.4241 23.4248V26.9881L61.1201 30.799Z" fill="white"/>
<path d="M61.1201 38.834C61.3276 38.9242 61.5514 38.971 61.7777 38.9716C62.1525 38.9717 62.5159 38.8433 62.8069 38.6079C63.098 38.3724 63.2989 38.0443 63.3761 37.6786C63.4532 37.3129 63.4018 36.9318 63.2305 36.5994C63.0592 36.267 62.7784 36.0035 62.4353 35.8531L52.4241 31.4644V35.0231L61.1201 38.834Z" fill="white"/>
<path d="M61.1615 46.8682C61.3692 46.9575 61.5928 47.0043 61.8191 47.0057C62.1942 47.007 62.5584 46.8793 62.8502 46.6443C63.1421 46.4092 63.3438 46.081 63.4216 45.715C63.4993 45.349 63.4482 44.9675 63.277 44.6346C63.1057 44.3017 62.8247 44.0378 62.4813 43.8873L52.4839 39.4985V43.0572L61.1615 46.8682Z" fill="white"/>
<path d="M83.6533 13.5514L73.4673 9.07553C73.2606 8.98578 73.0375 8.93945 72.812 8.93945C72.5866 8.93945 72.3635 8.98578 72.1567 9.07553L61.9708 13.5514L64.2701 16.1012L72.8189 12.3499L81.3724 16.1012V48.3496C81.3724 49.2668 84.642 49.2668 84.642 48.3496V15.0419C84.6409 14.7243 84.5467 14.4141 84.371 14.1493C84.1953 13.8844 83.9459 13.6766 83.6533 13.5514Z" fill="white"/>
<path d="M81.4873 23.6909C81.6949 23.7808 81.9187 23.8276 82.1449 23.8285C82.5197 23.8287 82.8831 23.7003 83.1742 23.4648C83.4652 23.2294 83.6662 22.9012 83.7433 22.5355C83.8204 22.1698 83.769 21.7887 83.5977 21.4563C83.4264 21.1239 83.1456 20.8604 82.8025 20.71L72.8052 16.3213V19.88L81.4873 23.6909Z" fill="white"/>
<path d="M81.4873 31.4138C81.6949 31.5036 81.9187 31.5504 82.1449 31.5513C82.5197 31.5515 82.8831 31.4231 83.1742 31.1877C83.4652 30.9522 83.6662 30.6241 83.7433 30.2584C83.8204 29.8926 83.769 29.5116 83.5977 29.1792C83.4264 28.8468 83.1456 28.5833 82.8025 28.4329L72.8052 24.0396V27.6028L81.4873 31.4138Z" fill="white"/>
<path d="M81.4873 39.1318C81.694 39.2252 81.9181 39.2736 82.1449 39.274C82.5189 39.2716 82.8808 39.1416 83.1703 38.9056C83.4599 38.6697 83.6598 38.3419 83.7366 37.9769C83.8135 37.612 83.7627 37.2317 83.5928 36.8995C83.4228 36.5673 83.144 36.3032 82.8025 36.151L72.8052 31.7622V35.3117L81.4873 39.1318Z" fill="white"/>
<path d="M81.4873 46.8545C81.6943 46.9464 81.9184 46.9933 82.1449 46.9921C82.5197 46.9923 82.8831 46.8638 83.1742 46.6284C83.4652 46.393 83.6662 46.0648 83.7433 45.6991C83.8204 45.3334 83.769 44.9523 83.5977 44.6199C83.4264 44.2875 83.1456 44.024 82.8025 43.8736L72.8052 39.4849V43.0436L81.4873 46.8545Z" fill="white"/>
<path d="M84.6144 25.0804L93.1632 21.3245L101.717 25.0804V48.6889H104.986V24.0165C104.985 23.7008 104.892 23.3921 104.72 23.1277C104.547 22.8632 104.301 22.6543 104.011 22.5261L93.8254 18.0548C93.6189 17.9639 93.3957 17.917 93.1701 17.917C92.9444 17.917 92.7212 17.9639 92.5148 18.0548L82.3151 22.5261L84.6144 25.0804Z" fill="white"/>
<path d="M101.859 32.6015C102.067 32.6913 102.29 32.7381 102.517 32.739C102.892 32.7392 103.255 32.6108 103.546 32.3754C103.837 32.1399 104.038 31.8118 104.115 31.4461C104.192 31.0803 104.141 30.6993 103.97 30.3669C103.798 30.0345 103.517 29.7709 103.174 29.6206L93.177 25.2227V28.7814L101.859 32.6015Z" fill="white"/>
<path d="M101.859 39.7187C102.067 39.8086 102.29 39.8554 102.517 39.8563C102.892 39.8565 103.255 39.7281 103.546 39.4927C103.837 39.2572 104.038 38.9291 104.115 38.5633C104.192 38.1976 104.141 37.8166 103.97 37.4842C103.798 37.1517 103.517 36.8882 103.174 36.7379L93.177 32.3491V35.9078L101.859 39.7187Z" fill="white"/>
<path d="M101.859 46.8364C102.066 46.9283 102.29 46.9752 102.517 46.974C102.892 46.9742 103.255 46.8458 103.546 46.6103C103.837 46.3749 104.038 46.0468 104.115 45.681C104.192 45.3153 104.141 44.9342 103.97 44.6018C103.798 44.2694 103.517 44.0059 103.174 43.8556L93.177 39.4668V43.0255L101.859 46.8364Z" fill="white"/>
<path d="M44.0501 56.4484V61.3141C44.0501 61.4054 44.0137 61.4928 43.9491 61.5573C43.8844 61.6218 43.7967 61.6581 43.7052 61.6581H38.2742C38.2344 61.657 38.195 61.6665 38.1601 61.6856C38.1251 61.7047 38.0959 61.7327 38.0753 61.7667C38.0547 61.8007 38.0436 61.8396 38.043 61.8793C38.0424 61.9191 38.0524 61.9582 38.0719 61.9929L39.2905 64.3225C39.3094 64.3599 39.3383 64.3913 39.374 64.4132C39.4098 64.435 39.4509 64.4465 39.4929 64.4463H43.6868C43.7783 64.4463 43.866 64.4826 43.9307 64.5471C43.9953 64.6116 44.0317 64.6991 44.0317 64.7903V69.656C44.0329 69.7476 44.0703 69.8351 44.1357 69.8995C44.2011 69.9638 44.2893 69.9999 44.3812 69.9999H47.6002C47.6913 69.9987 47.7783 69.9621 47.8428 69.8979C47.9072 69.8336 47.9439 69.7468 47.9451 69.656V56.4484C47.9439 56.3576 47.9072 56.2708 47.8428 56.2065C47.7783 56.1423 47.6913 56.1057 47.6002 56.1045H44.3812C44.2925 56.1091 44.2089 56.1473 44.1474 56.2112C44.0859 56.2751 44.0511 56.3599 44.0501 56.4484Z" fill="white"/>
<path d="M56.8526 69.656V64.7903C56.8538 64.6994 56.8905 64.6126 56.9549 64.5484C57.0193 64.4841 57.1064 64.4475 57.1975 64.4463H62.5916C62.6287 64.4459 62.6651 64.4372 62.6984 64.4209C62.7316 64.4045 62.7608 64.381 62.7837 64.352C62.8066 64.323 62.8228 64.2892 62.8309 64.2531C62.839 64.2171 62.839 64.1797 62.8308 64.1437L62.2421 61.8507C62.2289 61.7985 62.1987 61.7522 62.1563 61.7191C62.1138 61.6859 62.0615 61.6676 62.0076 61.6673H57.1975C57.1064 61.6661 57.0193 61.6294 56.9549 61.5652C56.8905 61.501 56.8538 61.4142 56.8526 61.3233V56.4484C56.8514 56.3576 56.8146 56.2708 56.7502 56.2065C56.6858 56.1423 56.5988 56.1057 56.5077 56.1045H53.2886C53.1967 56.1045 53.1085 56.1406 53.0431 56.2049C52.9777 56.2693 52.9404 56.3568 52.9391 56.4484V69.656C52.9404 69.7476 52.9777 69.8351 53.0431 69.8995C53.1085 69.9638 53.1967 69.9999 53.2886 69.9999H56.5077C56.5988 69.9987 56.6858 69.9621 56.7502 69.8979C56.8146 69.8336 56.8514 69.7468 56.8526 69.656Z" fill="white"/>
<path d="M33.5238 69.9998H37.1797C37.2561 69.9974 37.3306 69.976 37.3966 69.9375C37.4626 69.8991 37.5179 69.8449 37.5576 69.7799C37.5973 69.7148 37.6201 69.6408 37.624 69.5648C37.6279 69.4887 37.6127 69.4128 37.5798 69.3441L30.9486 56.375C30.9062 56.2905 30.8402 56.2201 30.7587 56.1721C30.6771 56.1241 30.5834 56.1006 30.4887 56.1044H26.0833C25.9889 56.1017 25.8956 56.1257 25.8142 56.1735C25.7329 56.2214 25.6667 56.2912 25.6234 56.375L19.0106 69.3441C18.9776 69.4132 18.9624 69.4894 18.9665 69.5659C18.9706 69.6423 18.9939 69.7165 19.0341 69.7817C19.0743 69.8469 19.1303 69.901 19.1969 69.9391C19.2635 69.9772 19.3386 69.9981 19.4153 69.9998H23.0666L24.6347 66.9548C24.6773 66.8708 24.7435 66.801 24.8251 66.7538C24.9067 66.7065 25.0003 66.684 25.0946 66.6888H31.5326C31.6268 66.6846 31.7202 66.7074 31.8017 66.7545C31.8832 66.8017 31.9494 66.8712 31.9925 66.9548L33.5238 69.9998ZM26.396 63.4832L28.0515 60.2501C28.075 60.206 28.1101 60.169 28.153 60.1433C28.1959 60.1175 28.2451 60.1039 28.2952 60.1039C28.3453 60.1039 28.3945 60.1175 28.4374 60.1433C28.4804 60.169 28.5154 60.206 28.5389 60.2501L30.1944 63.4832C30.2155 63.525 30.2256 63.5714 30.2237 63.6181C30.2219 63.6648 30.2081 63.7103 30.1837 63.7502C30.1593 63.7901 30.1251 63.8232 30.0843 63.8463C30.0436 63.8694 29.9976 63.8817 29.9507 63.8822H26.6397C26.5928 63.8817 26.5468 63.8694 26.5061 63.8463C26.4653 63.8232 26.4311 63.7901 26.4067 63.7502C26.3824 63.7103 26.3686 63.6648 26.3667 63.6181C26.3648 63.5714 26.3749 63.525 26.396 63.4832Z" fill="white"/>
<path d="M100.893 69.9998H104.545C104.621 69.9981 104.697 69.9772 104.763 69.9391C104.83 69.901 104.886 69.8469 104.926 69.7817C104.966 69.7165 104.989 69.6423 104.993 69.5659C104.998 69.4894 104.982 69.4132 104.949 69.3441L98.3136 56.375C98.2729 56.2941 98.2106 56.226 98.1335 56.1782C98.0563 56.1305 97.9675 56.1049 97.8768 56.1044H93.4483C93.3537 56.1006 93.2599 56.1241 93.1784 56.1721C93.0968 56.2201 93.0308 56.2905 92.9884 56.375L86.3572 69.3441C86.3243 69.4128 86.3092 69.4887 86.313 69.5648C86.3169 69.6408 86.3397 69.7148 86.3794 69.7799C86.4191 69.8449 86.4745 69.8991 86.5405 69.9375C86.6064 69.976 86.681 69.9974 86.7573 69.9998H90.4086L91.9767 66.9364C92.0177 66.8561 92.0802 66.7886 92.1573 66.7417C92.2345 66.6947 92.3232 66.67 92.4136 66.6704H98.8517C98.9459 66.6656 99.0395 66.6882 99.1211 66.7354C99.2028 66.7826 99.2689 66.8525 99.3115 66.9364L100.893 69.9998ZM93.7656 63.4832L95.4211 60.2501C95.4446 60.206 95.4797 60.169 95.5226 60.1433C95.5656 60.1175 95.6147 60.1039 95.6648 60.1039C95.7149 60.1039 95.7641 60.1175 95.807 60.1433C95.85 60.169 95.8851 60.206 95.9085 60.2501L97.5594 63.4832C97.5819 63.5248 97.5931 63.5715 97.5919 63.6188C97.5906 63.666 97.577 63.7121 97.5524 63.7524C97.5277 63.7928 97.4929 63.826 97.4514 63.8488C97.4099 63.8715 97.3631 63.883 97.3157 63.8822H94.0093C93.9624 63.8817 93.9165 63.8694 93.8757 63.8463C93.8349 63.8232 93.8007 63.7901 93.7764 63.7502C93.752 63.7103 93.7382 63.6648 93.7363 63.6181C93.7344 63.5714 93.7445 63.525 93.7656 63.4832Z" fill="white"/>
<path d="M15.5709 58.7002V56.5127C15.5709 56.4069 15.5287 56.3054 15.4537 56.2306C15.3787 56.1558 15.2769 56.1138 15.1708 56.1138H1.03929C0.765236 56.1138 0.502274 56.2217 0.307632 56.4141C0.112991 56.6065 0.00242522 56.8677 0 57.141L0 63.5109C0 63.7858 0.109496 64.0494 0.3044 64.2438C0.499303 64.4381 0.76365 64.5473 1.03929 64.5473H11.2574C11.3097 64.5467 11.3616 64.5565 11.4101 64.576C11.4587 64.5956 11.5028 64.6245 11.54 64.6612C11.5772 64.6979 11.6068 64.7416 11.6269 64.7897C11.6471 64.8379 11.6575 64.8896 11.6575 64.9417V66.6156C11.6575 66.7214 11.6153 66.8229 11.5403 66.8977C11.4653 66.9725 11.3635 67.0146 11.2574 67.0146H0.400079C0.293971 67.0146 0.19221 67.0566 0.11718 67.1314C0.042151 67.2063 0 67.3077 0 67.4136L0 69.6011C0 69.6535 0.0103483 69.7053 0.0304542 69.7537C0.05056 69.8021 0.0800296 69.8461 0.11718 69.8832C0.154331 69.9202 0.198436 69.9496 0.246975 69.9697C0.295515 69.9897 0.34754 70 0.400079 70H14.5316C14.8072 70 15.0716 69.8908 15.2665 69.6965C15.4614 69.5021 15.5709 69.2385 15.5709 68.9636V62.5937C15.5709 62.3188 15.4614 62.0552 15.2665 61.8609C15.0716 61.6665 14.8072 61.5573 14.5316 61.5573H4.31349C4.26117 61.5579 4.20925 61.5482 4.16074 61.5286C4.11222 61.5091 4.06808 61.4801 4.03087 61.4434C3.99366 61.4067 3.96411 61.363 3.94395 61.3149C3.92379 61.2667 3.91341 61.2151 3.91342 61.1629V59.489C3.91342 59.3832 3.95557 59.2817 4.0306 59.2069C4.10563 59.1321 4.20739 59.0901 4.31349 59.0901H15.1754C15.2791 59.0889 15.3784 59.0476 15.4522 58.9749C15.5259 58.9021 15.5685 58.8037 15.5709 58.7002Z" fill="white"/>
<path d="M85.4651 56.1047H82.3794C82.2744 56.1016 82.1715 56.1346 82.0878 56.198C82.0041 56.2614 81.9447 56.3515 81.9196 56.4532L79.6203 65.4233C79.6104 65.4552 79.5906 65.4831 79.5637 65.503C79.5368 65.5228 79.5043 65.5335 79.4708 65.5335C79.4374 65.5335 79.4048 65.5228 79.3779 65.503C79.351 65.4831 79.3312 65.4552 79.3214 65.4233L77.0221 56.467C76.9958 56.3647 76.9366 56.2738 76.8535 56.2083C76.7704 56.1428 76.6681 56.1064 76.5622 56.1047H73.5271C73.4214 56.1072 73.3194 56.1439 73.2365 56.2092C73.1535 56.2746 73.0941 56.365 73.0672 56.467L70.7679 65.4233C70.7581 65.4552 70.7383 65.4831 70.7114 65.503C70.6845 65.5228 70.6519 65.5335 70.6185 65.5335C70.585 65.5335 70.5525 65.5228 70.5256 65.503C70.4987 65.4831 70.4789 65.4552 70.469 65.4233L68.1697 56.4532C68.1446 56.3515 68.0852 56.2614 68.0015 56.198C67.9178 56.1346 67.8149 56.1016 67.7099 56.1047H64.6242C64.582 56.1049 64.5405 56.1147 64.5026 56.1332C64.4647 56.1517 64.4315 56.1784 64.4054 56.2115C64.3794 56.2445 64.3611 56.283 64.352 56.3241C64.3429 56.3651 64.3432 56.4077 64.3529 56.4486L67.7743 69.7066C67.7949 69.7907 67.8433 69.8653 67.9118 69.9186C67.9802 69.9718 68.0646 70.0006 68.1513 70.0001H72.1199C72.2067 70.0006 72.2911 69.9718 72.3595 69.9186C72.4279 69.8653 72.4764 69.7907 72.497 69.7066L74.9113 60.2733C74.9195 60.2406 74.9385 60.2116 74.9652 60.1909C74.9918 60.1702 75.0246 60.159 75.0584 60.159C75.0922 60.159 75.1251 60.1702 75.1517 60.1909C75.1784 60.2116 75.1973 60.2406 75.2056 60.2733L77.6199 69.7066C77.6405 69.7907 77.689 69.8653 77.7574 69.9186C77.8258 69.9718 77.9102 70.0006 77.997 70.0001H81.9656C82.0523 70.0006 82.1367 69.9718 82.2051 69.9186C82.2735 69.8653 82.322 69.7907 82.3426 69.7066L85.7364 56.4486C85.7461 56.4077 85.7464 56.3651 85.7373 56.3241C85.7282 56.283 85.7099 56.2445 85.6839 56.2115C85.6578 56.1784 85.6246 56.1517 85.5867 56.1332C85.5488 56.1147 85.5073 56.1049 85.4651 56.1047Z" fill="white"/>
</g>
<defs>
<clipPath id="clip0_2737_565">
<rect width="105" height="70" fill="white"/>
</clipPath>
</defs>
</svg>
